<?xml version="1.0" encoding="UTF-8"?><!DOCTYPE svg PUBLIC '-//W3C//DTD SVG 1.1//EN' 'http://www.w3.org/Graphics/SVG/1.1/DTD/svg11.dtd'><svg id="mouse" xmlns="http://www.w3.org/2000/svg" xml:space="preserve" height="32px" viewBox="0 0 32 32" width="32px" version="1.1" y="0px" x="0px" xmlns:xlink="http://www.w3.org/1999/xlink" enable-background="new 0 0 32 32"><path d="m17 0h-2c-4.971 0-9 4.029-9 9v14c0 4.971 4.029 9 9 9h2c4.971 0 9-4.029 9-9v-14c0-4.971-4.029-9-9-9zm7 23c0 3.866-3.134 7-7 7h-2c-3.866 0-7-3.134-7-7v-14c0-3.866 3.134-7 7-7h2c3.866 0 7 3.134 7 7v14zm-7-13c0 0.553-0.448 1-1 1s-1-0.447-1-1v-4c0-0.552 0.448-1 1-1s1 0.448 1 1v4z" fill="#fff"/></svg>