<svg xmlns="http://www.w3.org/2000/svg" xmlns:xlink="http://www.w3.org/1999/xlink" version="1.1" id="Your_Icon" x="0px" y="0px" width="100px" height="100px" viewBox="0 0 100 100" enable-background="new 0 0 100 100" xml:space="preserve">
<path fill="#000000" d="M76.759,62.719l-2.765-1.598c1.576-3.387,2.482-7.145,2.482-11.121c0-3.991-0.914-7.764-2.504-11.161  l2.785-1.608c1.244-0.719,1.67-2.31,0.952-3.553c-0.72-1.242-2.312-1.671-3.552-0.952l-2.844,1.642  c-4.336-5.896-11.033-9.948-18.705-10.699v-3.215c0-1.436-1.164-2.6-2.6-2.6c-1.437,0-2.601,1.164-2.601,2.6v3.215  c-7.673,0.751-14.373,4.809-18.711,10.708l-2.859-1.65c-1.247-0.719-2.835-0.29-3.552,0.952c-0.718,1.244-0.292,2.834,0.952,3.553  l2.804,1.618c-1.583,3.393-2.495,7.163-2.495,11.15c0,3.973,0.904,7.727,2.479,11.111l-2.785,1.606  c-1.243,0.72-1.67,2.308-0.952,3.552c0.482,0.834,1.355,1.301,2.254,1.301c0.44,0,0.888-0.111,1.298-0.348l2.832-1.636  c4.337,5.921,11.049,9.991,18.738,10.745v3.213c0,1.438,1.164,2.602,2.601,2.602c1.436,0,2.6-1.164,2.6-2.602v-3.213  c7.686-0.753,14.396-4.82,18.732-10.734l2.814,1.625c0.41,0.235,0.857,0.348,1.298,0.348c0.897,0,1.771-0.467,2.254-1.301  C78.43,65.025,78.003,63.438,76.759,62.719z M71.277,50c0,3.029-0.646,5.907-1.795,8.52l-10.34-5.972  C59.37,51.736,59.5,50.884,59.5,50c0-0.899-0.133-1.767-0.369-2.592l10.333-5.966C70.622,44.064,71.277,46.955,71.277,50z   M50.012,54.288c-2.364,0-4.286-1.924-4.286-4.288s1.922-4.288,4.286-4.288c2.365,0,4.289,1.924,4.289,4.288  S52.377,54.288,50.012,54.288z M66.79,36.981L56.383,42.99c-1.066-0.97-2.349-1.701-3.771-2.107V28.911  C58.361,29.617,63.398,32.623,66.79,36.981z M47.411,28.911v11.972c-1.426,0.408-2.711,1.143-3.777,2.115l-10.405-6.007  C36.619,32.627,41.658,29.617,47.411,28.911z M28.748,50c0-3.04,0.652-5.929,1.808-8.546l10.336,5.967  c-0.232,0.821-0.366,1.685-0.366,2.579c0,0.879,0.13,1.727,0.354,2.536l-10.343,5.97C29.393,55.898,28.748,53.025,28.748,50z   M33.201,62.975l10.397-6.002c1.074,0.987,2.372,1.731,3.812,2.146V71.09C41.643,70.382,36.593,67.357,33.201,62.975z M52.611,71.09  V59.117c1.438-0.41,2.732-1.151,3.806-2.137l10.399,6.002C63.425,67.361,58.378,70.382,52.611,71.09z"/>
</svg>